HIERARCHY
ROOT Hips
{
	OFFSET 0.000000 0.000000 0.000000
	CHANNELS 6 Xposition Yposition Zposition Xrotation Yrotation Zrotation
	JOINT LeftUpLeg_virtual
	{
		OFFSET 0.000000 0.000000 0.000000
		CHANNELS 3 Xrotation Yrotation Zrotation
		JOINT LeftUpLeg
		{
			OFFSET 13.026900 -6.336304 -1.092800
			CHANNELS 3 Xrotation Yrotation Zrotation
			JOINT LeftLeg
			{
				OFFSET 0.524474 -46.096886 9.782700
				CHANNELS 3 Xrotation Yrotation Zrotation
				JOINT LeftFoot
				{
					OFFSET -0.524474 -53.427422 -12.948200
					CHANNELS 3 Xrotation Yrotation Zrotation
					JOINT LeftToeBase
					{
						OFFSET 0.192200 -14.009700 16.364100
						CHANNELS 3 Xrotation Yrotation Zrotation
						JOINT LeftToe_End
						{
							OFFSET -1.784700 -0.561700 9.474800
							CHANNELS 3 Xrotation Yrotation Zrotation
							End Site
							{
								OFFSET 0 0 0
							}
						}
					}
				}
			}
		}
	}
	JOINT RightUpLeg_virtual
	{
		OFFSET 0.000000 0.000000 0.000000
		CHANNELS 3 Xrotation Yrotation Zrotation
		JOINT RightUpLeg
		{
			OFFSET -12.883000 -6.336304 -1.092800
			CHANNELS 3 Xrotation Yrotation Zrotation
			JOINT RightLeg
			{
				OFFSET -0.524587 -46.096825 9.782800
				CHANNELS 3 Xrotation Yrotation Zrotation
				JOINT RightFoot
				{
					OFFSET 0.524587 -53.427383 -12.948300
					CHANNELS 3 Xrotation Yrotation Zrotation
					JOINT RightToeBase
					{
						OFFSET -0.192200 -14.009700 16.364100
						CHANNELS 3 Xrotation Yrotation Zrotation
						JOINT RightToe_End
						{
							OFFSET 1.784700 -0.561700 9.474800
							CHANNELS 3 Xrotation Yrotation Zrotation
							End Site
							{
								OFFSET 0 0 0
							}
						}
					}
				}
			}
		}
	}
	JOINT Spine_virtual
	{
		OFFSET 0.000000 0.000000 0.000000
		CHANNELS 3 Xrotation Yrotation Zrotation
		JOINT Spine
		{
			OFFSET 0.072000 7.257294 -0.789700
			CHANNELS 3 Xrotation Yrotation Zrotation
			JOINT Spine1
			{
				OFFSET 0.000000 12.508769 -0.658067
				CHANNELS 3 Xrotation Yrotation Zrotation
				JOINT Spine1_split
				{
					OFFSET 0.000000 12.508769 -0.658067
					CHANNELS 3 Xrotation Yrotation Zrotation
					JOINT Spine2
					{
						OFFSET 0.000000 12.508769 -0.658067
						CHANNELS 3 Xrotation Yrotation Zrotation
						JOINT Neck_virtual
						{
							OFFSET 0.000000 0.000000 0.000000
							CHANNELS 3 Xrotation Yrotation Zrotation
							JOINT Neck
							{
								OFFSET 0.000000 14.033295 7.520400
								CHANNELS 3 Xrotation Yrotation Zrotation
								JOINT Head
								{
									OFFSET 0.000000 8.198502 5.703100
									CHANNELS 3 Xrotation Yrotation Zrotation
									JOINT HeadTop_End
									{
										OFFSET 0.000000 17.760803 13.332701
										CHANNELS 3 Xrotation Yrotation Zrotation
										End Site
										{
											OFFSET 0 0 0
										}
									}
								}
							}
						}
						JOINT LeftShoulder_virtual
						{
							OFFSET 0.000000 0.000000 0.000000
							CHANNELS 3 Xrotation Yrotation Zrotation
							JOINT LeftShoulder
							{
								OFFSET 6.292450 5.785301 -0.669000
								CHANNELS 3 Xrotation Yrotation Zrotation
								JOINT LeftShoulder_split
								{
									OFFSET 6.292450 5.785301 -0.669000
									CHANNELS 3 Xrotation Yrotation Zrotation
									JOINT LeftArm
									{
										OFFSET 13.907140 -6.093903 1.965100
										CHANNELS 3 Xrotation Yrotation Zrotation
										JOINT LeftForeArm
										{
											OFFSET 34.140198 0.000000 0.000000
											CHANNELS 3 Xrotation Yrotation Zrotation
											JOINT LeftHand
											{
												OFFSET 40.960209 0.000000 0.000000
												CHANNELS 3 Xrotation Yrotation Zrotation
												End Site
												{
													OFFSET 0 0 0
												}
											}
										}
									}
								}
							}
						}
						JOINT RightShoulder_virtual
						{
							OFFSET 0.000000 0.000000 0.000000
							CHANNELS 3 Xrotation Yrotation Zrotation
							JOINT RightShoulder
							{
								OFFSET -6.292450 5.785301 -0.669000
								CHANNELS 3 Xrotation Yrotation Zrotation
								JOINT RightShoulder_split
								{
									OFFSET -6.292450 5.785301 -0.669000
									CHANNELS 3 Xrotation Yrotation Zrotation
									JOINT RightArm
									{
										OFFSET -13.907140 -6.093903 1.965100
										CHANNELS 3 Xrotation Yrotation Zrotation
										JOINT RightForeArm
										{
											OFFSET -34.140198 0.000000 0.000000
											CHANNELS 3 Xrotation Yrotation Zrotation
											JOINT RightHand
											{
												OFFSET -40.960209 0.000000 0.000000
												CHANNELS 3 Xrotation Yrotation Zrotation
												End Site
												{
													OFFSET 0 0 0
												}
											}
										}
									}
								}
							}
						}
					}
				}
			}
		}
	}
}
MOTION
Frames: 10
Frame Time: 0.03333333
-13.847410 21.777031 -75.744583 0.000000 0.000000 0.000000 -98.457477 20.348155 2.353788 -58.506082 16.894230 21.290676 65.599042 11.659421 0.205672 27.688269 3.758726 -10.365614 -4.359783 0.087749 -0.366087 0.000000 0.000000 0.000000 -95.616535 21.283298 1.867220 -34.788763 -4.311125 -41.710442 96.889785 19.275040 1.339757 8.580160 -3.846118 20.537754 -0.732951 1.580178 0.288506 0.000000 0.000000 0.000000 -93.959245 18.892185 -2.056411 55.558217 12.882608 -0.679086 18.349844 4.148555 0.287151 0.084843 -3.675454 0.463005 0.000000 0.000000 0.000000 22.543022 4.319496 -0.229767 12.105701 -1.314550 -4.031849 29.685785 1.766153 0.679474 0.000000 0.000000 0.000000 20.771923 3.587300 0.035265 1.271348 -5.190592 -10.429662 -1.159106 -3.375134 -5.687978 -33.230694 -20.046059 -34.961392 -7.553769 -58.629060 -2.988193 0.000000 0.000000 0.000000 19.669500 3.031161 0.049364 0.477581 13.034711 15.990402 -2.417987 -1.678689 -2.892537 -25.497436 -7.300906 38.062592 2.200316 47.215418 -2.040806 0.000000 0.000000 0.000000 
-15.232608 21.562531 -78.084259 0.000000 0.000000 0.000000 -105.881579 21.701521 2.824779 -57.065343 11.745296 23.247918 65.982544 9.552338 1.288375 30.071940 1.369841 -10.614025 -3.497456 0.315290 -1.000780 0.000000 0.000000 0.000000 -102.596258 22.999965 2.457941 -19.234205 -2.668545 -34.331335 88.873069 20.141398 -1.498743 4.046754 -5.104337 25.428881 -0.567636 1.718848 0.796869 0.000000 0.000000 0.000000 -101.632108 19.904790 -2.656234 52.951687 13.240248 1.405183 19.279911 4.358209 0.468250 0.327782 -3.322886 0.754072 0.000000 0.000000 0.000000 22.702038 4.448822 -0.397965 12.119774 -1.931105 -3.633774 31.609689 1.842244 -1.115510 0.000000 0.000000 0.000000 21.186709 3.733075 0.262972 1.132458 -4.601633 -8.591944 -0.778245 -3.484319 -5.572250 -27.692529 -21.269337 -32.270663 -9.287533 -60.674756 -4.427364 0.000000 0.000000 0.000000 20.142446 3.322581 0.255846 0.281590 13.888396 15.679042 -3.079067 0.669468 -2.707805 -15.394236 -6.085215 38.304725 2.061652 41.544284 -1.225661 0.000000 0.000000 0.000000 
-16.250303 21.863968 -80.324692 0.000000 0.000000 0.000000 -112.471311 22.791523 3.408070 -54.867883 6.682049 25.476990 66.071992 7.090682 2.216908 32.281445 -1.329621 -10.751184 -1.870722 0.517228 -1.515902 0.000000 0.000000 0.000000 -109.084159 24.962318 3.566722 -6.311154 1.262811 -28.716946 81.782110 20.291418 -3.649112 -1.002636 -7.287551 26.143107 0.018745 1.723549 1.367378 0.000000 0.000000 0.000000 -108.851844 21.428948 -2.735240 50.314449 12.009822 3.516162 19.292919 4.041364 0.590990 1.655809 -2.447324 1.671995 0.000000 0.000000 0.000000 22.041248 4.079991 -0.514450 11.737990 -2.417138 -2.754843 31.953589 1.732357 -2.886485 0.000000 0.000000 0.000000 20.587350 3.284265 0.488119 0.785563 -4.669776 -7.155806 -0.250774 -3.507493 -4.901022 -22.012373 -22.003229 -30.644716 -9.866501 -60.728113 -5.019465 0.000000 0.000000 0.000000 19.621544 3.063926 0.458828 0.423351 14.551380 15.013601 -3.886842 2.512818 -2.511070 -4.794916 -3.063288 37.830908 2.110425 33.813545 -0.682798 0.000000 0.000000 0.000000 
-17.050449 22.571602 -82.497223 0.000000 0.000000 0.000000 -118.099257 23.419757 4.278108 -51.086970 2.653663 27.685574 65.210418 5.010250 2.932947 32.514931 -3.442188 -10.714897 -0.411596 0.675621 -1.703801 0.000000 0.000000 0.000000 -115.074590 26.568350 5.403246 2.598608 5.923293 -25.902678 78.462290 19.509192 -4.890782 -4.836118 -9.357652 23.446153 0.524415 1.647782 1.571747 0.000000 0.000000 0.000000 -115.258814 22.994819 -1.621602 47.687175 8.998970 5.038745 18.176542 3.091635 0.575705 2.313514 -1.610246 2.244316 0.000000 0.000000 0.000000 20.455766 3.155629 -0.611622 11.042786 -2.708026 -1.484669 31.051621 1.971133 -4.854822 0.000000 0.000000 0.000000 18.953683 2.228441 0.614598 0.343001 -4.934727 -6.335730 0.444653 -3.436426 -3.689915 -15.626692 -22.268987 -29.870104 -8.937024 -58.648430 -4.428810 0.000000 0.000000 0.000000 18.029910 2.101786 0.568359 0.892785 14.469930 14.066834 -4.081088 3.157999 -2.317770 5.647852 0.960830 37.196264 2.468282 29.271073 -0.593106 0.000000 0.000000 0.000000 
-17.774790 23.559937 -84.732910 0.000000 0.000000 0.000000 -122.211523 23.395666 5.121727 -46.033740 0.212717 30.049783 63.200259 3.443345 3.421150 30.110585 -4.857237 -10.864593 0.064998 0.799017 -1.472242 0.000000 0.000000 0.000000 -120.227913 27.335457 7.706107 7.113011 10.007399 -25.637516 80.026601 18.340070 -5.357871 -6.448983 -10.209798 20.377473 -0.055525 1.514547 1.307964 0.000000 0.000000 0.000000 -120.482898 24.030407 0.494995 45.085829 4.448766 5.556762 16.041032 1.556832 0.373998 2.363394 -0.971562 2.450604 0.000000 0.000000 0.000000 18.061500 1.696578 -0.705800 9.691092 -2.758435 -0.240051 29.088533 2.807667 -7.154320 0.000000 0.000000 0.000000 16.506493 0.663294 0.609321 -0.066706 -5.068036 -5.860437 0.716940 -2.930753 -2.751850 -7.829495 -22.041181 -29.244466 -7.364307 -54.730449 -3.363027 0.000000 0.000000 0.000000 15.468697 0.452743 0.518725 1.548554 13.338358 12.987304 -3.442771 2.514293 -2.248407 15.593394 4.934347 36.754006 3.019936 31.581876 -0.964433 0.000000 0.000000 0.000000 
-18.429708 24.548309 -87.175598 0.000000 0.000000 0.000000 -125.208023 22.768550 5.766198 -40.963469 -1.018788 32.290160 61.039065 2.464244 3.745325 25.777884 -5.626984 -11.356292 -0.540822 0.889772 -0.957769 0.000000 0.000000 0.000000 -124.404328 27.170462 9.830241 8.087287 13.262358 -26.721922 84.666834 17.281567 -5.278351 -6.049453 -9.773913 18.227873 -1.641846 1.374419 0.737202 0.000000 0.000000 0.000000 -124.261017 24.079357 2.850779 42.668250 -0.918910 5.133949 13.237868 -0.350190 -0.034143 1.472414 -0.880875 1.917467 0.000000 0.000000 0.000000 15.129822 -0.068131 -0.823899 7.608356 -2.642850 0.749002 26.425235 4.450130 -9.762621 0.000000 0.000000 0.000000 13.668266 -1.198008 0.417004 -0.365493 -4.598137 -5.546531 0.594452 -2.374079 -2.272372 1.539825 -21.238048 -27.897593 -5.903796 -50.124030 -2.409000 0.000000 0.000000 0.000000 12.423440 -1.595137 0.232304 2.183507 11.222880 11.480635 -1.995137 1.071301 -1.974173 24.429391 7.862461 36.274059 3.806945 40.522327 -1.896541 0.000000 0.000000 0.000000 
-19.112408 25.143021 -89.883224 0.000000 0.000000 0.000000 -127.259907 22.038150 6.636844 -37.172717 -1.528339 34.372838 59.553464 2.203708 3.869906 20.610072 -5.471576 -11.828753 -0.929073 0.940790 -0.591165 0.000000 0.000000 0.000000 -126.932263 26.145998 11.153667 6.628078 15.789154 -28.273756 89.682173 16.628102 -4.774050 -4.928080 -8.414585 16.285929 -2.148337 1.265994 0.291565 0.000000 0.000000 0.000000 -126.423332 23.362162 4.755915 40.420165 -6.172266 4.149210 10.323941 -2.331408 -0.516880 -0.010991 -0.897395 1.107449 0.000000 0.000000 0.000000 12.094582 -1.879449 -1.022449 4.732193 -2.513122 1.138632 23.393154 6.967214 -12.614032 0.000000 0.000000 0.000000 10.991005 -2.979512 0.073729 -0.464190 -3.332162 -5.159440 0.032303 -2.020943 -2.243893 11.994583 -19.735792 -25.376427 -4.864048 -45.965025 -1.696406 0.000000 0.000000 0.000000 9.371800 -3.646092 -0.254171 2.624646 8.487043 9.668828 0.136671 -0.145028 -1.676511 31.626464 9.432753 35.829086 5.031438 52.660359 -3.462691 0.000000 0.000000 0.000000 
-19.818525 25.270149 -93.107498 0.000000 0.000000 0.000000 -128.229971 21.252487 7.371963 -35.111216 -1.816206 36.294106 59.030730 2.563166 3.894557 15.698956 -4.616015 -12.168832 -0.069864 0.991400 -0.617377 0.000000 0.000000 0.000000 -127.941013 24.605644 11.412860 3.894971 17.734369 -29.506506 93.199905 16.137082 -3.870607 -4.758343 -6.825119 13.610231 -0.227607 1.168301 0.345848 0.000000 0.000000 0.000000 -127.212997 22.158998 5.583867 38.516058 -10.579102 2.962599 7.809032 -4.045200 -0.959891 -0.818864 -0.729358 0.936721 0.000000 0.000000 0.000000 9.275410 -3.450891 -1.247678 1.145243 -2.373672 0.796869 20.290279 10.106034 -15.531083 0.000000 0.000000 0.000000 8.809575 -4.470017 -0.351035 -0.369786 -1.476954 -4.469925 -0.762758 -1.756149 -2.877683 22.093355 -17.188608 -22.039487 -4.161206 -43.256705 -1.146875 0.000000 0.000000 0.000000 6.826473 -5.260327 -0.817910 2.732485 5.765825 7.908021 2.150032 -0.714152 -1.098339 36.781429 10.095370 35.314626 6.261725 61.643017 -5.170852 0.000000 0.000000 0.000000 
-20.407907 24.595757 -96.820541 0.000000 0.000000 0.000000 -128.418649 20.486587 7.905886 -34.608978 -2.130037 37.860343 59.151651 3.414744 3.949632 11.696153 -3.364065 -12.516895 1.790259 1.070417 -1.002616 0.000000 0.000000 0.000000 -127.751271 23.001337 10.846787 0.999036 19.195232 -29.924531 94.497573 15.618018 -2.779619 -5.744970 -5.414461 10.192059 2.632846 1.037667 0.793170 0.000000 0.000000 0.000000 -127.087103 20.721496 5.410815 37.032046 -13.659106 1.873434 6.011883 -5.288375 -1.272624 -1.149087 -0.604856 0.860217 0.000000 0.000000 0.000000 6.968605 -4.591117 -1.473410 -2.593975 -2.290055 -0.164551 17.413987 13.683852 -18.288513 0.000000 0.000000 0.000000 7.180291 -5.462566 -0.815601 -0.140511 0.781410 -3.721684 -1.508642 -1.810067 -3.477109 30.659411 -13.721137 -18.442300 -3.305863 -42.455684 -0.484717 0.000000 0.000000 0.000000 5.067123 -6.204276 -1.321168 2.505966 3.361796 6.650971 3.644968 -0.300287 -0.564822 39.443294 10.522965 34.622495 5.850299 63.107512 -5.275691 0.000000 0.000000 0.000000 
-20.883476 23.235931 -100.538635 0.000000 0.000000 0.000000 -127.686889 19.734512 8.055172 -35.003937 -2.312309 38.928998 59.401383 4.544555 4.049425 8.712874 -2.036737 -12.945137 3.882405 1.114187 -1.563281 0.000000 0.000000 0.000000 -126.736933 21.482103 9.778350 -1.553292 19.768516 -29.716394 94.558307 15.061236 -1.768056 -6.638853 -4.159413 7.399631 4.068254 0.856842 1.349318 0.000000 0.000000 0.000000 -126.241881 19.402634 4.577690 35.841196 -15.424266 0.822719 4.945773 -5.979211 -1.449645 -0.741770 -0.433933 1.398408 0.000000 0.000000 0.000000 5.265926 -5.248449 -1.666679 -6.076359 -2.225955 -1.607859 15.016808 17.217174 -20.679880 0.000000 0.000000 0.000000 6.015141 -5.931581 -1.291644 0.178995 2.941015 -3.072254 -2.383520 -1.856033 -3.963767 36.897140 -9.860678 -15.179155 -2.057610 -42.893591 0.415907 0.000000 0.000000 0.000000 4.050517 -6.461856 -1.657846 2.092009 1.505716 6.461381 4.239223 0.469453 -0.312972 39.550518 11.397063 33.996300 3.769238 57.028309 -3.681221 0.000000 0.000000 0.000000 
